<svg width="24" height="24" viewBox="0 0 24 24" fill="none" xmlns="http://www.w3.org/2000/svg">
<g id="Icon">
<path id="icon" fill-rule="evenodd" clip-rule="evenodd" d="M14.7106 14.0006H15.5006L19.7406 18.2606C20.1506 18.6706 20.1506 19.3406 19.7406 19.7506C19.3306 20.1606 18.6606 20.1606 18.2506 19.7506L14.0006 15.5006V14.7106L13.7306 14.4306C12.3306 15.6306 10.4206 16.2506 8.39063 15.9106C5.61063 15.4406 3.39063 13.1206 3.05063 10.3206C2.53063 6.09063 6.09063 2.53063 10.3206 3.05063C13.1206 3.39063 15.4406 5.61063 15.9106 8.39063C16.2506 10.4206 15.6306 12.3306 14.4306 13.7306L14.7106 14.0006ZM5.00063 9.50063C5.00063 11.9906 7.01063 14.0006 9.50063 14.0006C11.9906 14.0006 14.0006 11.9906 14.0006 9.50063C14.0006 7.01063 11.9906 5.00063 9.50063 5.00063C7.01063 5.00063 5.00063 7.01063 5.00063 9.50063Z" fill="black" fill-opacity="0.6"/>
<mask id="mask0_5003_20" style="mask-type:luminance" maskUnits="userSpaceOnUse" x="3" y="3" width="18" height="18">
<path id="icon_2" fill-rule="evenodd" clip-rule="evenodd" d="M14.7106 14.0006H15.5006L19.7406 18.2606C20.1506 18.6706 20.1506 19.3406 19.7406 19.7506C19.3306 20.1606 18.6606 20.1606 18.2506 19.7506L14.0006 15.5006V14.7106L13.7306 14.4306C12.3306 15.6306 10.4206 16.2506 8.39063 15.9106C5.61063 15.4406 3.39063 13.1206 3.05063 10.3206C2.53063 6.09063 6.09063 2.53063 10.3206 3.05063C13.1206 3.39063 15.4406 5.61063 15.9106 8.39063C16.2506 10.4206 15.6306 12.3306 14.4306 13.7306L14.7106 14.0006ZM5.00063 9.50063C5.00063 11.9906 7.01063 14.0006 9.50063 14.0006C11.9906 14.0006 14.0006 11.9906 14.0006 9.50063C14.0006 7.01063 11.9906 5.00063 9.50063 5.00063C7.01063 5.00063 5.00063 7.01063 5.00063 9.50063Z" fill="white"/>
</mask>
<g mask="url(#mask0_5003_20)">
</g>
</g>
</svg>
